<?xml version="1.0" encoding="utf-8"?>
<svg version="1.1" id="PB-Goat" xmlns="http://www.w3.org/2000/svg" xmlns:xlink="http://www.w3.org/1999/xlink" x="0px" y="0px"
	 viewBox="0 0 76 76" style="enable-background:new 0 0 76 76;" xml:space="preserve" onclick="playAudio()">
<style type="text/css">
	#PB-Goat {height:76px; width:76px;}
	.goat-st0{fill:none;}
	.goat-st1{fill:#000000;}
	.goat-st2{fill:#FFFFFF;}
	.goat-st3{fill:url(#goat-SVGID_1_);}
	.goat-st4{stroke:#000000;stroke-miterlimit:10;}
	.goat-st5{fill:none;stroke:#000000;stroke-miterlimit:10;}
	.goat-st6{fill:#FFFFFF;stroke:#000000;stroke-miterlimit:10;}
	.goat-st7{stroke:#000000; fill:#000000;}
</style>
<pattern  width="28.8" height="28.8" patternUnits="userSpaceOnUse" id="_x31_0_dpi_40_x25_" viewBox="2.88 -31.68 28.8 28.8" style="overflow:visible;">
	<g>
		<rect x="2.88" y="-31.68" class="goat-st0" width="28.8" height="28.8"/>
		<g>
			<path class="goat-st1" d="M31.68,0c1.59,0,2.88-1.29,2.88-2.88c0-1.59-1.29-2.88-2.88-2.88c-1.59,0-2.88,1.29-2.88,2.88
				C28.8-1.29,30.09,0,31.68,0z"/>
			<path class="goat-st1" d="M17.28,0c1.59,0,2.88-1.29,2.88-2.88c0-1.59-1.29-2.88-2.88-2.88c-1.59,0-2.88,1.29-2.88,2.88
				C14.4-1.29,15.69,0,17.28,0z"/>
			<path class="goat-st1" d="M31.68-14.4c1.59,0,2.88-1.29,2.88-2.88s-1.29-2.88-2.88-2.88c-1.59,0-2.88,1.29-2.88,2.88
				S30.09-14.4,31.68-14.4z"/>
			<path class="goat-st1" d="M17.28-14.4c1.59,0,2.88-1.29,2.88-2.88s-1.29-2.88-2.88-2.88c-1.59,0-2.88,1.29-2.88,2.88
				S15.69-14.4,17.28-14.4z"/>
			<path class="goat-st1" d="M10.08-7.2c1.59,0,2.88-1.29,2.88-2.88c0-1.59-1.29-2.88-2.88-2.88c-1.59,0-2.88,1.29-2.88,2.88
				C7.2-8.49,8.49-7.2,10.08-7.2z"/>
			<path class="goat-st1" d="M24.48-7.2c1.59,0,2.88-1.29,2.88-2.88c0-1.59-1.29-2.88-2.88-2.88c-1.59,0-2.88,1.29-2.88,2.88
				C21.6-8.49,22.89-7.2,24.48-7.2z"/>
			<path class="goat-st1" d="M10.08-21.6c1.59,0,2.88-1.29,2.88-2.88c0-1.59-1.29-2.88-2.88-2.88c-1.59,0-2.88,1.29-2.88,2.88
				C7.2-22.89,8.49-21.6,10.08-21.6z"/>
			<path class="goat-st1" d="M24.48-21.6c1.59,0,2.88-1.29,2.88-2.88c0-1.59-1.29-2.88-2.88-2.88c-1.59,0-2.88,1.29-2.88,2.88
				C21.6-22.89,22.89-21.6,24.48-21.6z"/>
		</g>
		<g>
			<path class="goat-st1" d="M2.88,0c1.59,0,2.88-1.29,2.88-2.88c0-1.59-1.29-2.88-2.88-2.88C1.29-5.76,0-4.47,0-2.88
				C0-1.29,1.29,0,2.88,0z"/>
			<path class="goat-st1" d="M2.88-14.4c1.59,0,2.88-1.29,2.88-2.88s-1.29-2.88-2.88-2.88C1.29-20.16,0-18.87,0-17.28
				S1.29-14.4,2.88-14.4z"/>
		</g>
		<g>
			<path class="goat-st1" d="M31.68-28.8c1.59,0,2.88-1.29,2.88-2.88c0-1.59-1.29-2.88-2.88-2.88c-1.59,0-2.88,1.29-2.88,2.88
				C28.8-30.09,30.09-28.8,31.68-28.8z"/>
			<path class="goat-st1" d="M17.28-28.8c1.59,0,2.88-1.29,2.88-2.88c0-1.59-1.29-2.88-2.88-2.88c-1.59,0-2.88,1.29-2.88,2.88
				C14.4-30.09,15.69-28.8,17.28-28.8z"/>
		</g>
		<g>
			<path class="goat-st1" d="M2.88-28.8c1.59,0,2.88-1.29,2.88-2.88c0-1.59-1.29-2.88-2.88-2.88C1.29-34.56,0-33.27,0-31.68
				C0-30.09,1.29-28.8,2.88-28.8z"/>
		</g>
	</g>
</pattern>
<g>
	<circle class="goat-st2" cx="38" cy="38" r="31.5"/>
	<path d="M38,7c17.09,0,31,13.91,31,31c0,17.09-13.91,31-31,31C20.91,69,7,55.09,7,38C7,20.91,20.91,7,38,7 M38,6L38,6
		C20.33,6,6,20.33,6,38v0c0,17.67,14.33,32,32,32h0c17.67,0,32-14.33,32-32v0C70,20.33,55.67,6,38,6L38,6z"/>
</g>
<g>
	<pattern  id="goat-SVGID_1_" xlink:href="#_x31_0_dpi_40_x25_" patternTransform="matrix(0.5 0 0 0.5 -4079.2786 -4041.4551)">
	</pattern>
	<path class="goat-st3" d="M38,6L38,6C20.33,6,6,20.33,6,38v0c0,9.67,4.3,18.34,11.08,24.2c0.78-1.6,2.08-3.92,3.42-5.7
		c3-4,4.43-9.7,4.43-9.7l26.37,2.09c0,0,0.2,4.61,2.2,8.61c1.16,2.33,1.72,5.13,1.94,7.32C64.2,59.12,70,49.24,70,38v0
		C70,20.33,55.67,6,38,6z"/>
</g>
<path class="goat-st4" d="M24.29,49.89c0,0,4.21,11.61,14.21,11.61s12.8-9.67,12.8-9.67l0.2-4.33h-25L24.29,49.89z"/>
<path class="goat-st5" d="M51.3,48.89c0,0,0.2,4.61,2.2,8.61c1.16,2.33,1.72,5.13,1.94,7.32"/>
<path class="goat-st5" d="M17.08,62.2c0.78-1.6,2.08-3.92,3.42-5.7c3-4,4.43-9.7,4.43-9.7"/>
<path class="goat-st6" d="M38.5,58.5c6,0,10.39-2.78,13-8c4-8,2-20,2-20s4,1,9,0s8-7,8-10s-4-4-8-2s-11,3-11,3s-6-7-13-7s-13,7-13,7
	s-7-1-11-3s-8-1-8,2s3,9,8,10s9,0,9,0s-3,13,2,20C28.89,55.24,32.5,58.5,38.5,58.5z"/>
<ellipse transform="matrix(0.1644 -0.9864 0.9864 0.1644 -8.7364 55.6871)" cx="28.5" cy="33" rx="3" ry="1.5"/>
<ellipse transform="matrix(0.9861 -0.1664 0.1664 0.9861 -4.8142 8.5287)" cx="48.5" cy="33" rx="1.5" ry="3"/>
<line class="goat-st5" x1="38.5" y1="39" x2="38.5" y2="42"/>
<path class="goat-st5" d="M42.5,36c0,0-2,3-4,3s-4-3-4-3"/>
<path class="goat-st5" d="M69.31,18.21c0,0,0.19,2.29-4.81,5.29s-10,0-10,3s6.5,4.73,10.75,2.86"/>
<path class="goat-st5" d="M7.69,18.21c0,0-0.19,2.29,4.81,5.29s10,0,10,3s-6.5,4.73-10.75,2.86"/>
<path class="goat-st5" d="M23.5,30.5c0,0,0-3,1-5"/>
<path class="goat-st7" 
 d="M38.5,42.5c0,0,5,1,6,0c0,0-1,3-2,6s-2,4-4,4s-3-1-4-4s-2-6-2-6C33.5,43.5,38.5,42.5,38.5,42.5z">
  <animate attributeName="d" dur = "4s" keyTimes="0;0.1;0.5;0.7;1" repeatCount="indefinite" values="M38.5,42.5c0,0,5,1,6,0c0,0-1,3-2,6s-2,4-4,4s-3-1-4-4s-2-6-2-6C33.5,43.5,38.5,42.5,38.5,42.5z;
M38.5,42.5c0,0,5,1,6,0c0,0-1,0.77-2,1s-2,1-4,1s-3-0.77-4-1s-2-1-2-1C33.5,43.5,38.5,42.5,38.5,42.5z;
M38.5,42.5c0,0,5,1,6,0c0,0-1,0.77-2,1s-2,1-4,1s-3-0.77-4-1s-2-1-2-1C33.5,43.5,38.5,42.5,38.5,42.5z;
M38.5,42.5c0,0,5,1,6,0c0,0-1,3-2,6s-2,4-4,4s-3-1-4-4s-2-6-2-6C33.5,43.5,38.5,42.5,38.5,42.5z;
M38.5,42.5c0,0,5,1,6,0c0,0-1,3-2,6s-2,4-4,4s-3-1-4-4s-2-6-2-6C33.5,43.5,38.5,42.5,38.5,42.5z;" /> </path>
</svg>