<?xml version="1.0" encoding="utf-8"?>
<!-- Generator: Adobe Illustrator 25.4.1, SVG Export Plug-In . SVG Version: 6.00 Build 0)  -->
<svg version="1.1" id="Layer_1" xmlns="http://www.w3.org/2000/svg" xmlns:xlink="http://www.w3.org/1999/xlink" x="0px" y="0px"
	 viewBox="0 0 207.9 21" style="enable-background:new 0 0 207.9 21;" xml:space="preserve">
<style type="text/css">
	.st0{fill:#010101;}
	.st1{fill:#6E44FF;}
</style>
<g>
	<circle class="st0" cx="12" cy="2.6" r="1.6"/>
	<circle class="st1" cx="19.8" cy="2.6" r="1.6"/>
	<circle class="st0" cx="27.6" cy="2.6" r="1.6"/>
	<circle class="st1" cx="12" cy="10.4" r="1.6"/>
	<circle class="st0" cx="19.8" cy="10.4" r="1.6"/>
	<circle class="st1" cx="19.8" cy="18.4" r="1.6"/>
	<circle class="st1" cx="27.6" cy="10.4" r="1.6"/>
	<circle class="st0" cx="12" cy="18.2" r="1.6"/>
	<circle class="st0" cx="27.6" cy="18.2" r="1.6"/>
</g>
<g>
	<g>
		<path class="st0" d="M46.9,6.1c0-3-1.5-4.6-4.2-4.6h-4c-0.1,0-0.1,0.1-0.1,0.1V20c0,0.1,0.1,0.1,0.1,0.1h2c0.1,0,0.1-0.1,0.1-0.1
			v-7.4c0-0.1,0.1-0.1,0.1-0.1h1.6c2.9,0,4.4-1.6,4.4-4.5C46.9,8,46.9,6.1,46.9,6.1z M44.6,8c0,1.7-0.7,2.3-2.1,2.3h-1.6
			c-0.1,0-0.1-0.1-0.1-0.1V3.8c0-0.1,0.1-0.1,0.1-0.1h1.8c1.4,0,1.9,0.8,1.9,2.3V8z"/>
		<path class="st0" d="M52.9,15.7h3.9l0,0c0.1,0,0.1,0,0.1,0.1l0.8,4.2c0,0.1,0.1,0.1,0.1,0.1h2h0.1V20L56.4,1.8
			c0-0.1-0.1-0.1-0.1-0.1h-2.9c-0.1,0-0.1,0-0.1,0.1L49.9,20v0.1H50h1.9c0.1,0,0.1,0,0.1-0.1l0.8-4.2C52.8,15.8,52.9,15.7,52.9,15.7
			z M54.7,5.3C54.7,5.2,54.8,5.2,54.7,5.3c0.2-0.1,0.2-0.1,0.2,0l1.7,8.3v0.1h-0.1h-3.2l0,0h-0.1v-0.1L54.7,5.3z"/>
		<path class="st0" d="M71.3,3.7C71.4,3.7,71.4,3.6,71.3,3.7l0.1-1.9c0-0.1-0.1-0.1-0.1-0.1h-8.8c-0.1,0-0.1,0.1-0.1,0.1v1.9
			c0,0.1,0.1,0.1,0.1,0.1h3.1c0.1,0,0.1,0.1,0.1,0.1V20c0,0.1,0.1,0.1,0.1,0.1h2C68,20.1,68,20,68,20V3.8c0-0.1,0.1-0.1,0.1-0.1
			S71.3,3.7,71.3,3.7z"/>
		<path class="st0" d="M83.6,3.7C83.7,3.7,83.7,3.6,83.6,3.7l0.1-1.9c0-0.1-0.1-0.1-0.1-0.1h-8.8c-0.1,0-0.1,0.1-0.1,0.1v1.9
			c0,0.1,0.1,0.1,0.1,0.1h3.1C78,3.7,78,3.8,78,3.8V20c0,0.1,0.1,0.1,0.1,0.1h2c0.1,0,0.1-0.1,0.1-0.1V3.8c0-0.1,0.1-0.1,0.1-0.1
			S83.6,3.7,83.6,3.7z"/>
		<path class="st0" d="M88,20.1h7.5c0.1,0,0.1-0.1,0.1-0.1v-1.9c0-0.1-0.1-0.1-0.1-0.1h-5.3c-0.1,0-0.1-0.1-0.1-0.1v-6
			c0-0.1,0.1-0.1,0.1-0.1h4.2c0.1,0,0.1-0.1,0.1-0.1V9.8c0-0.1-0.1-0.1-0.1-0.1h-4.2c-0.1,0-0.1-0.1-0.1-0.1V3.9
			c0-0.1,0.1-0.1,0.1-0.1h5.3c0.1,0,0.1-0.1,0.1-0.1V1.9c0-0.1-0.1-0.1-0.1-0.1H88c-0.1,0-0.1,0.1-0.1,0.1L88,20.1
			C87.9,20.1,88,20.1,88,20.1z"/>
		<path class="st0" d="M107,20h2h0.1v-0.1v-5.1c0-2-0.7-3.5-1.9-4.2l-0.1-0.1c0,0,0-0.1,0.1-0.1c1.2-0.6,1.8-1.8,1.8-3.6v-1
			c0-2.9-1.4-4.3-4.2-4.3h-4.1c-0.1,0-0.1,0.1-0.1,0.1v18.2c0,0.1,0.1,0.1,0.1,0.1h2c0.1,0,0.1-0.1,0.1-0.1v-8
			c0-0.1,0.1-0.1,0.1-0.1h1.2c2.1,0,2.5,1.7,2.5,3v5.1C106.9,20,106.9,20,107,20z M104.4,9.7h-1.3c-0.1,0-0.1-0.1-0.1-0.1V3.8
			c0-0.1,0.1-0.1,0.1-0.1h1.8c1.4,0,1.9,0.8,1.9,2.3v1.3C106.9,9.4,105.9,9.7,104.4,9.7z"/>
		<path class="st0" d="M116.6,6.7l4.2,13.3c0,0.1,0.1,0.1,0.1,0.1h2.1c0.1,0,0.1-0.1,0.1-0.1V1.8c0-0.1-0.1-0.1-0.1-0.1h-1.8
			c-0.1,0-0.1,0.1-0.1,0.1v11.6c0,0.1,0,0.1-0.1,0.1c-0.1,0-0.1,0-0.1-0.1l-3.7-11.7c0-0.1-0.1-0.1-0.1-0.1h-2.5
			c-0.1,0-0.1,0.1-0.1,0.1V20c0,0.1,0.1,0.1,0.1,0.1h1.9c0.1,0,0.1-0.1,0.1-0.1V6.7C116.6,6.7,116.6,6.7,116.6,6.7L116.6,6.7
			C116.5,6.6,116.6,6.7,116.6,6.7z"/>
	</g>
	<g>
		<path class="st1" d="M137.3,13.6c0-1.9-0.7-3.2-1.9-3.8l-0.1-0.1c0,0,0-0.1,0.1-0.1c1.1-0.6,1.7-1.7,1.7-3.5V5.8
			c0-2.8-1.3-4.2-4.1-4.2h-4.1c-0.1,0-0.1,0.1-0.1,0.1V20c0,0.1,0.1,0.1,0.1,0.1h4.2c2.8,0,4.3-1.6,4.3-4.4V13.6z M131,3.8
			C131,3.7,131.1,3.7,131,3.8l1.9-0.1c1.4,0,1.9,0.7,1.9,2.2v0.6c0,1.9-0.9,2.3-2.3,2.3H131c-0.1,0-0.1-0.1-0.1-0.1L131,3.8L131,3.8
			z M135.1,15.7c0,1.7-0.6,2.3-2,2.3h-1.9c-0.1,0-0.1-0.1-0.1-0.1v-6.8c0-0.1,0.1-0.1,0.1-0.1h1.6c1.8,0,2.4,0.7,2.4,2.6V15.7z"/>
		<path class="st1" d="M144.2,15.7h3.9l0,0c0.1,0,0.1,0,0.1,0.1L149,20c0,0.1,0.1,0.1,0.1,0.1h2h0.1V20l-3.5-18.2
			c0-0.1-0.1-0.1-0.1-0.1h-2.9c-0.1,0-0.1,0-0.1,0.1L141.2,20v0.1h0.1h1.9c0.1,0,0.1,0,0.1-0.1l0.8-4.2
			C144.1,15.8,144.1,15.7,144.2,15.7z M146.1,5.3C146.1,5.2,146.2,5.2,146.1,5.3c0.2-0.1,0.2-0.1,0.2,0l1.7,8.3v0.1h-0.1h-3.2l0,0
			h-0.1v-0.1L146.1,5.3z"/>
		<path class="st1" d="M160.3,10L160.3,10L160.3,10c-1.5-1.2-2.7-2.2-2.7-4.1c0-1.7,0.7-2.4,1.9-2.4s1.9,0.9,1.9,2.5v0.6
			c0,0.1,0.1,0.1,0.1,0.1h1.9c0.1,0,0.1-0.1,0.1-0.1V6.1c0-3-1.6-4.7-4.2-4.7c-2.7,0-4.2,1.7-4.2,4.7c0,2.7,1.8,4.2,3.4,5.6
			c1.4,1.2,2.7,2.2,2.7,4.1c0,2-1.1,2.5-2,2.5s-2-0.4-2-2.5v-1.2c0-0.1-0.1-0.1-0.1-0.1h-1.9c-0.1,0-0.1,0.1-0.1,0.1v1.1
			c0,3,1.6,4.7,4.2,4.7c2.7,0,4.3-1.8,4.3-4.7C163.6,12.9,161.9,11.4,160.3,10z"/>
		<path class="st1" d="M168.1,20.1h7.5c0.1,0,0.1-0.1,0.1-0.1v-1.9c0-0.1-0.1-0.1-0.1-0.1h-5.3c-0.1,0-0.1-0.1-0.1-0.1v-6
			c0-0.1,0.1-0.1,0.1-0.1h4.2c0.1,0,0.1-0.1,0.1-0.1V9.8c0-0.1-0.1-0.1-0.1-0.1h-4.2c-0.1,0-0.1-0.1-0.1-0.1V3.9
			c0-0.1,0.1-0.1,0.1-0.1h5.3c0.1,0,0.1-0.1,0.1-0.1V1.9c0-0.1-0.1-0.1-0.1-0.1h-7.5c-0.1,0-0.1,0.1-0.1,0.1L168.1,20.1
			C168,20.1,168,20.1,168.1,20.1z"/>
		<path class="st1" d="M188.8,6.2c0-3-1.6-4.7-4.3-4.7h-4.3c-0.1,0-0.1,0.1-0.1,0.1V20c0,0.1,0.1,0.1,0.1,0.1h4.3
			c2.7,0,4.3-1.7,4.3-4.7V6.2z M186.5,15.5c0,1.7-0.7,2.4-2,2.4h-1.9c-0.1,0-0.1-0.1-0.1-0.1v-14c0-0.1,0.1-0.1,0.1-0.1h1.9
			c1.4,0,2,0.8,2,2.4V15.5z"/>
	</g>
</g>
<g>
	<path class="st0" d="M192.3,2.2h-1V1.9h2.4v0.4h-1v2.9h-0.4L192.3,2.2L192.3,2.2z"/>
	<path class="st0" d="M196.9,3.7c0-0.5-0.1-1,0-1.5l0,0c-0.1,0.4-0.3,0.8-0.4,1.3l-0.6,1.6h-0.3l-0.5-1.6c-0.2-0.5-0.3-0.9-0.4-1.3
		l0,0c0,0.4,0,1-0.1,1.5l-0.1,1.4h-0.4l0.2-3.3h0.6l0.6,1.6c0.1,0.4,0.3,0.8,0.3,1.1l0,0c0.1-0.3,0.2-0.7,0.4-1.1l0.6-1.6h0.6
		l0.2,3.3h-0.4L196.9,3.7z"/>
</g>
</svg>
